<svg xmlns="http://www.w3.org/2000/svg" version="1.1" xmlns:xlink="http://www.w3.org/1999/xlink" viewBox="0 0 700 700" style="overflow: hidden; display: block;" width="700" height="700"><defs></defs><g id="two-0" transform="matrix(1 0 0 1 0 0)" opacity="1"><path transform="matrix(1 0 0 1 350 350)" id="two-176" d="M 269.776275 28.354629 C 256.628859 56.380936 185.290175 7.840862 176.414202 37.497996 C 171.41785 54.19222 203.699075 60.030853 217.500086 70.670062 C 246.733005 93.205737 311.29169 100.225595 307.597535 136.951246 C 306.175923 151.084272 275.736958 142.795529 268.54023 155.041774 C 261.438272 167.126754 282.976914 189.076677 271.698916 197.400817 C 245.203509 216.956724 202.741878 138.3834 178.790713 160.983881 C 163.904349 175.030755 213.47276 206.501479 198.038742 219.944306 C 181.657475 234.212174 157.639092 180.204973 138.856016 191.11891 C 126.161924 198.494834 146.271562 225.049777 135.974452 235.514659 C 129.000754 242.60198 115.857406 238.704674 105.942981 237.951833 C 95.455288 237.155461 83.397851 224.369664 74.928569 230.606425 C 50.404979 248.665547 98.76454 318.570334 68.587272 322.677747 C 20.082226 329.279743 63.212202 204.251794 19.212608 182.795757 C 13.201023 179.864258 4.701367 184.491996 0 189.249094 C -22.268982 211.782057 2.132424 282.470947 -29.493027 280.607405 C -54.209543 279.150975 -19.571123 211.038426 -43.998019 206.994404 C -78.785137 201.235185 -63.24057 308.557 -97.338864 299.578217 C -122.731841 292.891723 -101.154214 246.072054 -97.954396 220.009175 C -94.180152 189.267525 -47.401214 144.032294 -74.546867 129.118959 C -110.8858 109.155001 -126.283671 244.330772 -160.435038 220.819884 C -188.5092 201.492737 -89.159694 149.932245 -115.216333 127.9607 C -156.51413 93.137467 -198.111149 243.753455 -248.172825 223.455814 C -260.032861 218.64713 -259.347048 197.328871 -255.021738 185.284138 C -234.510398 128.166 -86.407679 119.918431 -114.805603 66.283045 C -129.244474 39.012232 -181.296487 111.087183 -204.92165 91.236996 C -211.384115 85.807144 -206.513259 73.175485 -202.446648 65.778903 C -194.362161 51.074383 -157.51922 50.578681 -162.34876 34.508294 C -171.394532 4.408306 -230.839106 44.007099 -257.297701 27.043078 C -265.900977 21.527056 -267.14623 8.772551 -272.388862 0 C -278.553184 -10.314824 -296.80778 -19.68183 -291.987658 -30.68914 C -281.208108 -55.305502 -217.769132 -18.817317 -211.825786 -45.024961 C -206.390086 -68.994099 -281.799273 -65.806621 -272.312675 -88.479752 C -256.862159 -125.406747 -175.673916 -35.193222 -152.752342 -68.009725 C -146.176906 -77.423686 -163.461253 -88.800808 -170.071135 -98.190616 C -186.699521 -121.812423 -245.525595 -142.777155 -226.850594 -164.816604 C -194.109058 -203.456786 -130.770393 -49.658424 -95.283867 -85.79398 C -77.387359 -104.017806 -144.372997 -127.169029 -136.332327 -151.412388 C -134.044729 -158.309708 -119.071371 -152.906991 -115.8123 -159.401956 C -103.693183 -183.554012 -136.059848 -211.356608 -137.602575 -238.334651 C -138.600706 -255.789202 -146.609453 -287.497676 -129.418014 -290.677619 C -76.845534 -300.402082 -99.673605 -133.750185 -48.787866 -150.153612 C -0.10642 -165.846467 -111.026905 -282.6788 -64.68751 -304.330805 C -48.964796 -311.677217 -36.26355 -281.903216 -28.023906 -266.629651 C -7.722263 -228.997143 -42.752757 -139.371507 -0.000001 -140.122615 C 61.90431 -141.210189 -27.769144 -326.427162 34.118109 -324.61213 C 68.480865 -323.604338 13.272064 -227.758039 47.026138 -221.24059 C 87.26505 -213.471006 69.115949 -345.057194 107.186016 -329.884639 C 174.415712 -303.09072 32.90671 -187.260891 52.334386 -117.544957 C 53.564319 -113.13136 58.007188 -109.543138 62.258808 -107.835419 C 67.223787 -105.84117 73.176099 -107.241519 78.471594 -108.006885 C 87.034787 -109.244537 95.93455 -111.337524 103.694424 -115.164326 C 155.193902 -140.561427 205.179428 -262.010254 243.282088 -219.052177 C 284.454838 -172.63279 80.936747 -135.313128 113.821252 -82.695981 C 125.726153 -63.647436 156.756077 -98.537052 178.731465 -103.19066 C 201.752291 -108.065655 241.566684 -133.246349 249.595522 -111.127087 C 261.621014 -77.997132 153.475837 -86.692831 160.543891 -52.163873 C 163.611806 -37.176451 203.762471 -58.928981 206.144515 -43.81737 C 209.129115 -24.883162 151.896666 -35.206482 154.996351 -16.290774 C 160.169001 15.275127 223.650245 -17.311692 250.5476 -0.000001 C 260.054409 6.118778 274.577817 18.119197 269.776275 28.354629 Z " fill="hsl(0, 0%, 100%)" stroke="undefined" stroke-width="1" stroke-opacity="1" fill-opacity="1" visibility="visible" stroke-linecap="butt" stroke-linejoin="miter" stroke-miterlimit="4"></path></g></svg>