<svg xmlns="http://www.w3.org/2000/svg" version="1.1" xmlns:xlink="http://www.w3.org/1999/xlink" xmlns:svgjs="http://svgjs.dev/svgjs" width="1440" height="560" preserveAspectRatio="none" viewBox="0 0 1440 560">
    <g mask="url(&quot;#SvgjsMask1010&quot;)" fill="none">
        <rect width="1440" height="560" x="0" y="0" fill="rgba(0, 0, 0, 1)"></rect>
        <path d="M-102.22 504.49L-102.22 504.49" stroke="rgba(255, 255, 255, 1)" stroke-width="1.5"></path>
        <path d="M-102.22 504.49L-112.43 689.27" stroke="rgba(255, 255, 255, 1)" stroke-width="1.5"></path>
        <path d="M-102.22 504.49L97.4 511.22" stroke="rgba(255, 255, 255, 1)" stroke-width="1.5"></path>
        <path d="M-102.22 504.49L60.75 378.11" stroke="rgba(255, 255, 255, 1)" stroke-width="1.5"></path>
        <path d="M-112.43 689.27L-112.43 689.27" stroke="rgba(255, 255, 255, 1)" stroke-width="1.5"></path>
        <path d="M-112.43 689.27L58.28 681.48" stroke="rgba(255, 255, 255, 1)" stroke-width="1.5"></path>
        <path d="M60.75 378.11L60.75 378.11" stroke="rgba(255, 255, 255, 1)" stroke-width="1.5"></path>
        <path d="M60.75 378.11L97.4 511.22" stroke="rgba(255, 255, 255, 1)" stroke-width="1.5"></path>
        <path d="M60.75 378.11L246.45 400.83" stroke="rgba(255, 255, 255, 1)" stroke-width="1.5"></path>
        <path d="M60.75 378.11L246.55 500.6" stroke="rgba(255, 255, 255, 1)" stroke-width="1.5"></path>
        <path d="M60.75 378.11L58.28 681.48" stroke="rgba(255, 255, 255, 1)" stroke-width="1.5"></path>
        <path d="M60.75 378.11L369.21 383.71" stroke="rgba(255, 255, 255, 1)" stroke-width="1.5"></path>
        <path d="M97.4 511.22L97.4 511.22" stroke="rgba(255, 255, 255, 1)" stroke-width="1.5"></path>
        <path d="M97.4 511.22L246.55 500.6" stroke="rgba(255, 255, 255, 1)" stroke-width="1.5"></path>
        <path d="M58.28 681.48L58.28 681.48" stroke="rgba(255, 255, 255, 1)" stroke-width="1.5"></path>
        <path d="M58.28 681.48L97.4 511.22" stroke="rgba(255, 255, 255, 1)" stroke-width="1.5"></path>
        <path d="M58.28 681.48L247.31 683.06" stroke="rgba(255, 255, 255, 1)" stroke-width="1.5"></path>
        <path d="M58.28 681.48L-102.22 504.49" stroke="rgba(255, 255, 255, 1)" stroke-width="1.5"></path>
        <path d="M58.28 681.48L246.55 500.6" stroke="rgba(255, 255, 255, 1)" stroke-width="1.5"></path>
        <path d="M246.45 400.83L246.45 400.83" stroke="rgba(255, 255, 255, 1)" stroke-width="1.5"></path>
        <path d="M246.45 400.83L246.55 500.6" stroke="rgba(255, 255, 255, 1)" stroke-width="1.5"></path>
        <path d="M246.45 400.83L369.21 383.71" stroke="rgba(255, 255, 255, 1)" stroke-width="1.5"></path>
        <path d="M246.45 400.83L339.59 536.49" stroke="rgba(255, 255, 255, 1)" stroke-width="1.5"></path>
        <path d="M246.45 400.83L97.4 511.22" stroke="rgba(255, 255, 255, 1)" stroke-width="1.5"></path>
        <path d="M246.55 500.6L246.55 500.6" stroke="rgba(255, 255, 255, 1)" stroke-width="1.5"></path>
        <path d="M246.55 500.6L339.59 536.49" stroke="rgba(255, 255, 255, 1)" stroke-width="1.5"></path>
        <path d="M246.55 500.6L369.21 383.71" stroke="rgba(255, 255, 255, 1)" stroke-width="1.5"></path>
        <path d="M246.55 500.6L247.31 683.06" stroke="rgba(255, 255, 255, 1)" stroke-width="1.5"></path>
        <path d="M246.55 500.6L367.23 642.37" stroke="rgba(255, 255, 255, 1)" stroke-width="1.5"></path>
        <path d="M247.31 683.06L247.31 683.06" stroke="rgba(255, 255, 255, 1)" stroke-width="1.5"></path>
        <path d="M247.31 683.06L367.23 642.37" stroke="rgba(255, 255, 255, 1)" stroke-width="1.5"></path>
        <path d="M247.31 683.06L339.59 536.49" stroke="rgba(255, 255, 255, 1)" stroke-width="1.5"></path>
        <path d="M369.21 383.71L369.21 383.71" stroke="rgba(255, 255, 255, 1)" stroke-width="1.5"></path>
        <path d="M369.21 383.71L339.59 536.49" stroke="rgba(255, 255, 255, 1)" stroke-width="1.5"></path>
        <path d="M369.21 383.71L525.86 404.3" stroke="rgba(255, 255, 255, 1)" stroke-width="1.5"></path>
        <path d="M369.21 383.71L367.23 642.37" stroke="rgba(255, 255, 255, 1)" stroke-width="1.5"></path>
        <path d="M369.21 383.71L97.4 511.22" stroke="rgba(255, 255, 255, 1)" stroke-width="1.5"></path>
        <path d="M339.59 536.49L339.59 536.49" stroke="rgba(255, 255, 255, 1)" stroke-width="1.5"></path>
        <path d="M339.59 536.49L367.23 642.37" stroke="rgba(255, 255, 255, 1)" stroke-width="1.5"></path>
        <path d="M367.23 642.37L367.23 642.37" stroke="rgba(255, 255, 255, 1)" stroke-width="1.5"></path>
        <path d="M367.23 642.37L547.88 711.97" stroke="rgba(255, 255, 255, 1)" stroke-width="1.5"></path>
        <path d="M525.86 404.3L525.86 404.3" stroke="rgba(255, 255, 255, 1)" stroke-width="1.5"></path>
        <path d="M525.86 404.3L670.92 349.55" stroke="rgba(255, 255, 255, 1)" stroke-width="1.5"></path>
        <path d="M525.86 404.3L339.59 536.49" stroke="rgba(255, 255, 255, 1)" stroke-width="1.5"></path>
        <path d="M525.86 404.3L675.73 211.82" stroke="rgba(255, 255, 255, 1)" stroke-width="1.5"></path>
        <path d="M525.86 404.3L246.45 400.83" stroke="rgba(255, 255, 255, 1)" stroke-width="1.5"></path>
        <path d="M547.88 711.97L547.88 711.97" stroke="rgba(255, 255, 255, 1)" stroke-width="1.5"></path>
        <path d="M547.88 711.97L683.05 698.48" stroke="rgba(255, 255, 255, 1)" stroke-width="1.5"></path>
        <path d="M547.88 711.97L788.12 678.04" stroke="rgba(255, 255, 255, 1)" stroke-width="1.5"></path>
        <path d="M547.88 711.97L339.59 536.49" stroke="rgba(255, 255, 255, 1)" stroke-width="1.5"></path>
        <path d="M547.88 711.97L247.31 683.06" stroke="rgba(255, 255, 255, 1)" stroke-width="1.5"></path>
        <path d="M675.73 211.82L675.73 211.82" stroke="rgba(255, 255, 255, 1)" stroke-width="1.5"></path>
        <path d="M675.73 211.82L806.87 248.74" stroke="rgba(255, 255, 255, 1)" stroke-width="1.5"></path>
        <path d="M675.73 211.82L670.92 349.55" stroke="rgba(255, 255, 255, 1)" stroke-width="1.5"></path>
        <path d="M675.73 211.82L835.68 377.94" stroke="rgba(255, 255, 255, 1)" stroke-width="1.5"></path>
        <path d="M670.92 349.55L670.92 349.55" stroke="rgba(255, 255, 255, 1)" stroke-width="1.5"></path>
        <path d="M670.92 349.55L835.68 377.94" stroke="rgba(255, 255, 255, 1)" stroke-width="1.5"></path>
        <path d="M670.92 349.55L806.87 248.74" stroke="rgba(255, 255, 255, 1)" stroke-width="1.5"></path>
        <path d="M683.05 698.48L683.05 698.48" stroke="rgba(255, 255, 255, 1)" stroke-width="1.5"></path>
        <path d="M683.05 698.48L788.12 678.04" stroke="rgba(255, 255, 255, 1)" stroke-width="1.5"></path>
        <path d="M683.05 698.48L803.18 521.5" stroke="rgba(255, 255, 255, 1)" stroke-width="1.5"></path>
        <path d="M683.05 698.48L978.87 709.02" stroke="rgba(255, 255, 255, 1)" stroke-width="1.5"></path>
        <path d="M683.05 698.48L367.23 642.37" stroke="rgba(255, 255, 255, 1)" stroke-width="1.5"></path>
        <path d="M806.87 248.74L806.87 248.74" stroke="rgba(255, 255, 255, 1)" stroke-width="1.5"></path>
        <path d="M806.87 248.74L835.68 377.94" stroke="rgba(255, 255, 255, 1)" stroke-width="1.5"></path>
        <path d="M835.68 377.94L835.68 377.94" stroke="rgba(255, 255, 255, 1)" stroke-width="1.5"></path>
        <path d="M835.68 377.94L943.09 360.29" stroke="rgba(255, 255, 255, 1)" stroke-width="1.5"></path>
        <path d="M835.68 377.94L803.18 521.5" stroke="rgba(255, 255, 255, 1)" stroke-width="1.5"></path>
        <path d="M835.68 377.94L995.2 225.39" stroke="rgba(255, 255, 255, 1)" stroke-width="1.5"></path>
        <path d="M803.18 521.5L803.18 521.5" stroke="rgba(255, 255, 255, 1)" stroke-width="1.5"></path>
        <path d="M803.18 521.5L788.12 678.04" stroke="rgba(255, 255, 255, 1)" stroke-width="1.5"></path>
        <path d="M803.18 521.5L943.09 360.29" stroke="rgba(255, 255, 255, 1)" stroke-width="1.5"></path>
        <path d="M788.12 678.04L788.12 678.04" stroke="rgba(255, 255, 255, 1)" stroke-width="1.5"></path>
        <path d="M788.12 678.04L978.87 709.02" stroke="rgba(255, 255, 255, 1)" stroke-width="1.5"></path>
        <path d="M788.12 678.04L835.68 377.94" stroke="rgba(255, 255, 255, 1)" stroke-width="1.5"></path>
        <path d="M971.99 -56.69L971.99 -56.69" stroke="rgba(255, 255, 255, 1)" stroke-width="1.5"></path>
        <path d="M971.99 -56.69L1002.44 67.25" stroke="rgba(255, 255, 255, 1)" stroke-width="1.5"></path>
        <path d="M971.99 -56.69L1131.48 -97.51" stroke="rgba(255, 255, 255, 1)" stroke-width="1.5"></path>
        <path d="M971.99 -56.69L1106.03 107.69" stroke="rgba(255, 255, 255, 1)" stroke-width="1.5"></path>
        <path d="M971.99 -56.69L995.2 225.39" stroke="rgba(255, 255, 255, 1)" stroke-width="1.5"></path>
        <path d="M1002.44 67.25L1002.44 67.25" stroke="rgba(255, 255, 255, 1)" stroke-width="1.5"></path>
        <path d="M1002.44 67.25L1106.03 107.69" stroke="rgba(255, 255, 255, 1)" stroke-width="1.5"></path>
        <path d="M1002.44 67.25L995.2 225.39" stroke="rgba(255, 255, 255, 1)" stroke-width="1.5"></path>
        <path d="M1002.44 67.25L1124.65 200.97" stroke="rgba(255, 255, 255, 1)" stroke-width="1.5"></path>
        <path d="M1002.44 67.25L1131.48 -97.51" stroke="rgba(255, 255, 255, 1)" stroke-width="1.5"></path>
        <path d="M1002.44 67.25L806.87 248.74" stroke="rgba(255, 255, 255, 1)" stroke-width="1.5"></path>
        <path d="M995.2 225.39L995.2 225.39" stroke="rgba(255, 255, 255, 1)" stroke-width="1.5"></path>
        <path d="M995.2 225.39L1124.65 200.97" stroke="rgba(255, 255, 255, 1)" stroke-width="1.5"></path>
        <path d="M995.2 225.39L943.09 360.29" stroke="rgba(255, 255, 255, 1)" stroke-width="1.5"></path>
        <path d="M995.2 225.39L1106.03 107.69" stroke="rgba(255, 255, 255, 1)" stroke-width="1.5"></path>
        <path d="M995.2 225.39L806.87 248.74" stroke="rgba(255, 255, 255, 1)" stroke-width="1.5"></path>
        <path d="M943.09 360.29L943.09 360.29" stroke="rgba(255, 255, 255, 1)" stroke-width="1.5"></path>
        <path d="M943.09 360.29L806.87 248.74" stroke="rgba(255, 255, 255, 1)" stroke-width="1.5"></path>
        <path d="M943.09 360.29L1093.56 497.4" stroke="rgba(255, 255, 255, 1)" stroke-width="1.5"></path>
        <path d="M978.87 709.02L978.87 709.02" stroke="rgba(255, 255, 255, 1)" stroke-width="1.5"></path>
        <path d="M978.87 709.02L1147.77 693.01" stroke="rgba(255, 255, 255, 1)" stroke-width="1.5"></path>
        <path d="M978.87 709.02L1093.56 497.4" stroke="rgba(255, 255, 255, 1)" stroke-width="1.5"></path>
        <path d="M978.87 709.02L803.18 521.5" stroke="rgba(255, 255, 255, 1)" stroke-width="1.5"></path>
        <path d="M1131.48 -97.51L1131.48 -97.51" stroke="rgba(255, 255, 255, 1)" stroke-width="1.5"></path>
        <path d="M1131.48 -97.51L1256.68 -67.84" stroke="rgba(255, 255, 255, 1)" stroke-width="1.5"></path>
        <path d="M1131.48 -97.51L1106.03 107.69" stroke="rgba(255, 255, 255, 1)" stroke-width="1.5"></path>
        <path d="M1131.48 -97.51L1284.04 71.53" stroke="rgba(255, 255, 255, 1)" stroke-width="1.5"></path>
        <path d="M1106.03 107.69L1106.03 107.69" stroke="rgba(255, 255, 255, 1)" stroke-width="1.5"></path>
        <path d="M1106.03 107.69L1124.65 200.97" stroke="rgba(255, 255, 255, 1)" stroke-width="1.5"></path>
        <path d="M1106.03 107.69L1284.04 71.53" stroke="rgba(255, 255, 255, 1)" stroke-width="1.5"></path>
        <path d="M1106.03 107.69L1286.91 206.37" stroke="rgba(255, 255, 255, 1)" stroke-width="1.5"></path>
        <path d="M1124.65 200.97L1124.65 200.97" stroke="rgba(255, 255, 255, 1)" stroke-width="1.5"></path>
        <path d="M1124.65 200.97L1286.91 206.37" stroke="rgba(255, 255, 255, 1)" stroke-width="1.5"></path>
        <path d="M1124.65 200.97L1284.04 71.53" stroke="rgba(255, 255, 255, 1)" stroke-width="1.5"></path>
        <path d="M1093.56 497.4L1093.56 497.4" stroke="rgba(255, 255, 255, 1)" stroke-width="1.5"></path>
        <path d="M1093.56 497.4L1147.77 693.01" stroke="rgba(255, 255, 255, 1)" stroke-width="1.5"></path>
        <path d="M1093.56 497.4L1275.11 397.8" stroke="rgba(255, 255, 255, 1)" stroke-width="1.5"></path>
        <path d="M1093.56 497.4L1310.95 663.22" stroke="rgba(255, 255, 255, 1)" stroke-width="1.5"></path>
        <path d="M1093.56 497.4L835.68 377.94" stroke="rgba(255, 255, 255, 1)" stroke-width="1.5"></path>
        <path d="M1147.77 693.01L1147.77 693.01" stroke="rgba(255, 255, 255, 1)" stroke-width="1.5"></path>
        <path d="M1147.77 693.01L1310.95 663.22" stroke="rgba(255, 255, 255, 1)" stroke-width="1.5"></path>
        <path d="M1256.68 -67.84L1256.68 -67.84" stroke="rgba(255, 255, 255, 1)" stroke-width="1.5"></path>
        <path d="M1256.68 -67.84L1392.42 -40.98" stroke="rgba(255, 255, 255, 1)" stroke-width="1.5"></path>
        <path d="M1256.68 -67.84L1284.04 71.53" stroke="rgba(255, 255, 255, 1)" stroke-width="1.5"></path>
        <path d="M1256.68 -67.84L1413.77 70.17" stroke="rgba(255, 255, 255, 1)" stroke-width="1.5"></path>
        <path d="M1284.04 71.53L1284.04 71.53" stroke="rgba(255, 255, 255, 1)" stroke-width="1.5"></path>
        <path d="M1284.04 71.53L1413.77 70.17" stroke="rgba(255, 255, 255, 1)" stroke-width="1.5"></path>
        <path d="M1284.04 71.53L1286.91 206.37" stroke="rgba(255, 255, 255, 1)" stroke-width="1.5"></path>
        <path d="M1286.91 206.37L1286.91 206.37" stroke="rgba(255, 255, 255, 1)" stroke-width="1.5"></path>
        <path d="M1286.91 206.37L1399.3 232.95" stroke="rgba(255, 255, 255, 1)" stroke-width="1.5"></path>
        <path d="M1275.11 397.8L1275.11 397.8" stroke="rgba(255, 255, 255, 1)" stroke-width="1.5"></path>
        <path d="M1275.11 397.8L1422.79 382.16" stroke="rgba(255, 255, 255, 1)" stroke-width="1.5"></path>
        <path d="M1275.11 397.8L1286.91 206.37" stroke="rgba(255, 255, 255, 1)" stroke-width="1.5"></path>
        <path d="M1310.95 663.22L1310.95 663.22" stroke="rgba(255, 255, 255, 1)" stroke-width="1.5"></path>
        <path d="M1310.95 663.22L1410.25 662.57" stroke="rgba(255, 255, 255, 1)" stroke-width="1.5"></path>
        <path d="M1310.95 663.22L1452.58 517.17" stroke="rgba(255, 255, 255, 1)" stroke-width="1.5"></path>
        <path d="M1310.95 663.22L1275.11 397.8" stroke="rgba(255, 255, 255, 1)" stroke-width="1.5"></path>
        <path d="M1392.42 -40.98L1392.42 -40.98" stroke="rgba(255, 255, 255, 1)" stroke-width="1.5"></path>
        <path d="M1392.42 -40.98L1413.77 70.17" stroke="rgba(255, 255, 255, 1)" stroke-width="1.5"></path>
        <path d="M1392.42 -40.98L1284.04 71.53" stroke="rgba(255, 255, 255, 1)" stroke-width="1.5"></path>
        <path d="M1413.77 70.17L1413.77 70.17" stroke="rgba(255, 255, 255, 1)" stroke-width="1.5"></path>
        <path d="M1399.3 232.95L1399.3 232.95" stroke="rgba(255, 255, 255, 1)" stroke-width="1.5"></path>
        <path d="M1399.3 232.95L1422.79 382.16" stroke="rgba(255, 255, 255, 1)" stroke-width="1.5"></path>
        <path d="M1399.3 232.95L1413.77 70.17" stroke="rgba(255, 255, 255, 1)" stroke-width="1.5"></path>
        <path d="M1422.79 382.16L1422.79 382.16" stroke="rgba(255, 255, 255, 1)" stroke-width="1.5"></path>
        <path d="M1422.79 382.16L1452.58 517.17" stroke="rgba(255, 255, 255, 1)" stroke-width="1.5"></path>
        <path d="M1452.58 517.17L1452.58 517.17" stroke="rgba(255, 255, 255, 1)" stroke-width="1.5"></path>
        <path d="M1452.58 517.17L1583.69 509.01" stroke="rgba(255, 255, 255, 1)" stroke-width="1.5"></path>
        <path d="M1410.25 662.57L1410.25 662.57" stroke="rgba(255, 255, 255, 1)" stroke-width="1.5"></path>
        <path d="M1410.25 662.57L1452.58 517.17" stroke="rgba(255, 255, 255, 1)" stroke-width="1.5"></path>
        <path d="M1410.25 662.57L1578.42 685.04" stroke="rgba(255, 255, 255, 1)" stroke-width="1.5"></path>
        <path d="M1552.57 -63.14L1552.57 -63.14" stroke="rgba(255, 255, 255, 1)" stroke-width="1.5"></path>
        <path d="M1552.57 -63.14L1592.21 60.45" stroke="rgba(255, 255, 255, 1)" stroke-width="1.5"></path>
        <path d="M1552.57 -63.14L1392.42 -40.98" stroke="rgba(255, 255, 255, 1)" stroke-width="1.5"></path>
        <path d="M1552.57 -63.14L1413.77 70.17" stroke="rgba(255, 255, 255, 1)" stroke-width="1.5"></path>
        <path d="M1552.57 -63.14L1609.99 213.76" stroke="rgba(255, 255, 255, 1)" stroke-width="1.5"></path>
        <path d="M1592.21 60.45L1592.21 60.45" stroke="rgba(255, 255, 255, 1)" stroke-width="1.5"></path>
        <path d="M1592.21 60.45L1609.99 213.76" stroke="rgba(255, 255, 255, 1)" stroke-width="1.5"></path>
        <path d="M1592.21 60.45L1413.77 70.17" stroke="rgba(255, 255, 255, 1)" stroke-width="1.5"></path>
        <path d="M1592.21 60.45L1392.42 -40.98" stroke="rgba(255, 255, 255, 1)" stroke-width="1.5"></path>
        <path d="M1609.99 213.76L1609.99 213.76" stroke="rgba(255, 255, 255, 1)" stroke-width="1.5"></path>
        <path d="M1609.99 213.76L1585.39 379.75" stroke="rgba(255, 255, 255, 1)" stroke-width="1.5"></path>
        <path d="M1585.39 379.75L1585.39 379.75" stroke="rgba(255, 255, 255, 1)" stroke-width="1.5"></path>
        <path d="M1585.39 379.75L1583.69 509.01" stroke="rgba(255, 255, 255, 1)" stroke-width="1.5"></path>
        <path d="M1585.39 379.75L1422.79 382.16" stroke="rgba(255, 255, 255, 1)" stroke-width="1.5"></path>
        <path d="M1585.39 379.75L1452.58 517.17" stroke="rgba(255, 255, 255, 1)" stroke-width="1.5"></path>
        <path d="M1585.39 379.75L1399.3 232.95" stroke="rgba(255, 255, 255, 1)" stroke-width="1.5"></path>
        <path d="M1585.39 379.75L1578.42 685.04" stroke="rgba(255, 255, 255, 1)" stroke-width="1.5"></path>
        <path d="M1583.69 509.01L1583.69 509.01" stroke="rgba(255, 255, 255, 1)" stroke-width="1.5"></path>
        <path d="M1583.69 509.01L1578.42 685.04" stroke="rgba(255, 255, 255, 1)" stroke-width="1.5"></path>
        <path d="M1583.69 509.01L1422.79 382.16" stroke="rgba(255, 255, 255, 1)" stroke-width="1.5"></path>
        <path d="M1583.69 509.01L1410.25 662.57" stroke="rgba(255, 255, 255, 1)" stroke-width="1.5"></path>
        <path d="M1583.69 509.01L1609.99 213.76" stroke="rgba(255, 255, 255, 1)" stroke-width="1.5"></path>
        <path d="M1578.42 685.04L1578.42 685.04" stroke="rgba(255, 255, 255, 1)" stroke-width="1.5"></path>
        <path d="M1578.42 685.04L1452.58 517.17" stroke="rgba(255, 255, 255, 1)" stroke-width="1.5"></path>
        <path d="M1578.42 685.04L1310.95 663.22" stroke="rgba(255, 255, 255, 1)" stroke-width="1.5"></path>
        <path d="M1578.42 685.04L1422.79 382.16" stroke="rgba(255, 255, 255, 1)" stroke-width="1.5"></path>
        <circle r="5" cx="-102.22" cy="504.49" fill="rgba(255, 255, 255, 1)"></circle>
        <circle r="5" cx="-112.43" cy="689.27" fill="rgba(255, 255, 255, 1)"></circle>
        <circle r="5" cx="60.75" cy="378.11" fill="rgba(255, 255, 255, 1)"></circle>
        <circle r="5" cx="97.4" cy="511.22" fill="rgba(255, 255, 255, 1)"></circle>
        <circle r="5" cx="58.28" cy="681.48" fill="rgba(255, 255, 255, 1)"></circle>
        <circle r="5" cx="246.45" cy="400.83" fill="rgba(255, 255, 255, 1)"></circle>
        <circle r="5" cx="246.55" cy="500.6" fill="rgba(255, 255, 255, 1)"></circle>
        <circle r="5" cx="247.31" cy="683.06" fill="rgba(255, 255, 255, 1)"></circle>
        <circle r="5" cx="369.21" cy="383.71" fill="rgba(255, 255, 255, 1)"></circle>
        <circle r="5" cx="339.59" cy="536.49" fill="rgba(255, 255, 255, 1)"></circle>
        <circle r="5" cx="367.23" cy="642.37" fill="rgba(255, 255, 255, 1)"></circle>
        <circle r="5" cx="525.86" cy="404.3" fill="rgba(255, 255, 255, 1)"></circle>
        <circle r="5" cx="547.88" cy="711.97" fill="rgba(255, 255, 255, 1)"></circle>
        <circle r="5" cx="675.73" cy="211.82" fill="rgba(255, 255, 255, 1)"></circle>
        <circle r="5" cx="670.92" cy="349.55" fill="rgba(255, 255, 255, 1)"></circle>
        <circle r="5" cx="683.05" cy="698.48" fill="rgba(255, 255, 255, 1)"></circle>
        <circle r="5" cx="806.87" cy="248.74" fill="rgba(255, 255, 255, 1)"></circle>
        <circle r="5" cx="835.68" cy="377.94" fill="rgba(255, 255, 255, 1)"></circle>
        <circle r="5" cx="803.18" cy="521.5" fill="rgba(255, 255, 255, 1)"></circle>
        <circle r="5" cx="788.12" cy="678.04" fill="rgba(255, 255, 255, 1)"></circle>
        <circle r="5" cx="971.99" cy="-56.69" fill="rgba(255, 255, 255, 1)"></circle>
        <circle r="5" cx="1002.44" cy="67.25" fill="rgba(255, 255, 255, 1)"></circle>
        <circle r="5" cx="995.2" cy="225.39" fill="rgba(255, 255, 255, 1)"></circle>
        <circle r="5" cx="943.09" cy="360.29" fill="rgba(255, 255, 255, 1)"></circle>
        <circle r="5" cx="978.87" cy="709.02" fill="rgba(255, 255, 255, 1)"></circle>
        <circle r="5" cx="1131.48" cy="-97.51" fill="rgba(255, 255, 255, 1)"></circle>
        <circle r="5" cx="1106.03" cy="107.69" fill="rgba(255, 255, 255, 1)"></circle>
        <circle r="5" cx="1124.65" cy="200.97" fill="rgba(255, 255, 255, 1)"></circle>
        <circle r="5" cx="1093.56" cy="497.4" fill="rgba(255, 255, 255, 1)"></circle>
        <circle r="5" cx="1147.77" cy="693.01" fill="rgba(255, 255, 255, 1)"></circle>
        <circle r="5" cx="1256.68" cy="-67.84" fill="rgba(255, 255, 255, 1)"></circle>
        <circle r="5" cx="1284.04" cy="71.53" fill="rgba(255, 255, 255, 1)"></circle>
        <circle r="5" cx="1286.91" cy="206.37" fill="rgba(255, 255, 255, 1)"></circle>
        <circle r="5" cx="1275.11" cy="397.8" fill="rgba(255, 255, 255, 1)"></circle>
        <circle r="5" cx="1310.95" cy="663.22" fill="rgba(255, 255, 255, 1)"></circle>
        <circle r="5" cx="1392.42" cy="-40.98" fill="rgba(255, 255, 255, 1)"></circle>
        <circle r="5" cx="1413.77" cy="70.17" fill="rgba(255, 255, 255, 1)"></circle>
        <circle r="5" cx="1399.3" cy="232.95" fill="rgba(255, 255, 255, 1)"></circle>
        <circle r="5" cx="1422.79" cy="382.16" fill="rgba(255, 255, 255, 1)"></circle>
        <circle r="5" cx="1452.58" cy="517.17" fill="rgba(255, 255, 255, 1)"></circle>
        <circle r="5" cx="1410.25" cy="662.57" fill="rgba(255, 255, 255, 1)"></circle>
        <circle r="5" cx="1552.57" cy="-63.14" fill="rgba(255, 255, 255, 1)"></circle>
        <circle r="5" cx="1592.21" cy="60.45" fill="rgba(255, 255, 255, 1)"></circle>
        <circle r="5" cx="1609.99" cy="213.76" fill="rgba(255, 255, 255, 1)"></circle>
        <circle r="5" cx="1585.39" cy="379.75" fill="rgba(255, 255, 255, 1)"></circle>
        <circle r="5" cx="1583.69" cy="509.01" fill="rgba(255, 255, 255, 1)"></circle>
        <circle r="5" cx="1578.42" cy="685.04" fill="rgba(255, 255, 255, 1)"></circle>
        <path d="M381.72 534.42L381.72 534.42" stroke="hsl(0, 0%, 100%)" stroke-width="1.5"></path>
        <path d="M381.72 534.42L339.09 678.14" stroke="hsl(0, 0%, 100%)" stroke-width="1.5"></path>
        <path d="M381.72 534.42L533.45 527.24" stroke="hsl(0, 0%, 100%)" stroke-width="1.5"></path>
        <path d="M381.72 534.42L209.45 511.09" stroke="hsl(0, 0%, 100%)" stroke-width="1.5"></path>
        <path d="M381.72 534.42L194.16 648.76" stroke="hsl(0, 0%, 100%)" stroke-width="1.5"></path>
        <path d="M339.09 678.14L339.09 678.14" stroke="hsl(0, 0%, 100%)" stroke-width="1.5"></path>
        <path d="M339.09 678.14L194.16 648.76" stroke="hsl(0, 0%, 100%)" stroke-width="1.5"></path>
        <path d="M339.09 678.14L547.45 712.46" stroke="hsl(0, 0%, 100%)" stroke-width="1.5"></path>
        <path d="M339.09 678.14L209.45 511.09" stroke="hsl(0, 0%, 100%)" stroke-width="1.5"></path>
        <path d="M339.09 678.14L533.45 527.24" stroke="hsl(0, 0%, 100%)" stroke-width="1.5"></path>
        <path d="M981.08 349.92L981.08 349.92" stroke="hsl(0, 0%, 100%)" stroke-width="1.5"></path>
        <path d="M981.08 349.92L977.23 239.25" stroke="hsl(0, 0%, 100%)" stroke-width="1.5"></path>
        <path d="M981.08 349.92L1094.93 358.45" stroke="hsl(0, 0%, 100%)" stroke-width="1.5"></path>
        <path d="M981.08 349.92L1003.9 490.46" stroke="hsl(0, 0%, 100%)" stroke-width="1.5"></path>
        <path d="M1126.5 253.16L1126.5 253.16" stroke="hsl(0, 0%, 100%)" stroke-width="1.5"></path>
        <path d="M1126.5 253.16L1094.93 358.45" stroke="hsl(0, 0%, 100%)" stroke-width="1.5"></path>
        <path d="M1126.5 253.16L1266.11 238.8" stroke="hsl(0, 0%, 100%)" stroke-width="1.5"></path>
        <path d="M1126.5 253.16L977.23 239.25" stroke="hsl(0, 0%, 100%)" stroke-width="1.5"></path>
        <path d="M1126.5 253.16L981.08 349.92" stroke="hsl(0, 0%, 100%)" stroke-width="1.5"></path>
        <path d="M1126.5 253.16L1256.11 380.87" stroke="hsl(0, 0%, 100%)" stroke-width="1.5"></path>
        <path d="M1126.5 253.16L1255.23 59.28" stroke="hsl(0, 0%, 100%)" stroke-width="1.5"></path>
        <path d="M1094.93 358.45L1094.93 358.45" stroke="hsl(0, 0%, 100%)" stroke-width="1.5"></path>
        <path d="M1094.93 358.45L1092.89 511.51" stroke="hsl(0, 0%, 100%)" stroke-width="1.5"></path>
        <path d="M-90.13 519.57L-90.13 519.57" stroke="hsl(0, 0%, 100%)" stroke-width="1.5"></path>
        <path d="M-90.13 519.57L88.95 526.77" stroke="hsl(0, 0%, 100%)" stroke-width="1.5"></path>
        <path d="M-90.13 519.57L-45.06 706.23" stroke="hsl(0, 0%, 100%)" stroke-width="1.5"></path>
        <path d="M-90.13 519.57L59.46 679.16" stroke="hsl(0, 0%, 100%)" stroke-width="1.5"></path>
        <path d="M-90.13 519.57L209.45 511.09" stroke="hsl(0, 0%, 100%)" stroke-width="1.5"></path>
        <path d="M-45.06 706.23L-45.06 706.23" stroke="hsl(0, 0%, 100%)" stroke-width="1.5"></path>
        <path d="M-45.06 706.23L59.46 679.16" stroke="hsl(0, 0%, 100%)" stroke-width="1.5"></path>
        <path d="M-45.06 706.23L88.95 526.77" stroke="hsl(0, 0%, 100%)" stroke-width="1.5"></path>
        <path d="M-45.06 706.23L194.16 648.76" stroke="hsl(0, 0%, 100%)" stroke-width="1.5"></path>
        <path d="M88.95 526.77L88.95 526.77" stroke="hsl(0, 0%, 100%)" stroke-width="1.5"></path>
        <path d="M88.95 526.77L209.45 511.09" stroke="hsl(0, 0%, 100%)" stroke-width="1.5"></path>
        <path d="M88.95 526.77L59.46 679.16" stroke="hsl(0, 0%, 100%)" stroke-width="1.5"></path>
        <path d="M88.95 526.77L194.16 648.76" stroke="hsl(0, 0%, 100%)" stroke-width="1.5"></path>
        <path d="M88.95 526.77L339.09 678.14" stroke="hsl(0, 0%, 100%)" stroke-width="1.5"></path>
        <path d="M59.46 679.16L59.46 679.16" stroke="hsl(0, 0%, 100%)" stroke-width="1.5"></path>
        <path d="M59.46 679.16L194.16 648.76" stroke="hsl(0, 0%, 100%)" stroke-width="1.5"></path>
        <path d="M59.46 679.16L209.45 511.09" stroke="hsl(0, 0%, 100%)" stroke-width="1.5"></path>
        <path d="M59.46 679.16L339.09 678.14" stroke="hsl(0, 0%, 100%)" stroke-width="1.5"></path>
        <path d="M209.45 511.09L209.45 511.09" stroke="hsl(0, 0%, 100%)" stroke-width="1.5"></path>
        <path d="M209.45 511.09L194.16 648.76" stroke="hsl(0, 0%, 100%)" stroke-width="1.5"></path>
        <path d="M194.16 648.76L194.16 648.76" stroke="hsl(0, 0%, 100%)" stroke-width="1.5"></path>
        <path d="M533.45 527.24L533.45 527.24" stroke="hsl(0, 0%, 100%)" stroke-width="1.5"></path>
        <path d="M533.45 527.24L699.49 559.35" stroke="hsl(0, 0%, 100%)" stroke-width="1.5"></path>
        <path d="M533.45 527.24L547.45 712.46" stroke="hsl(0, 0%, 100%)" stroke-width="1.5"></path>
        <path d="M533.45 527.24L697.22 399.52" stroke="hsl(0, 0%, 100%)" stroke-width="1.5"></path>
        <path d="M547.45 712.46L547.45 712.46" stroke="hsl(0, 0%, 100%)" stroke-width="1.5"></path>
        <path d="M697.22 399.52L697.22 399.52" stroke="hsl(0, 0%, 100%)" stroke-width="1.5"></path>
        <path d="M697.22 399.52L801.32 395.12" stroke="hsl(0, 0%, 100%)" stroke-width="1.5"></path>
        <path d="M697.22 399.52L699.49 559.35" stroke="hsl(0, 0%, 100%)" stroke-width="1.5"></path>
        <path d="M697.22 399.52L832.12 554.63" stroke="hsl(0, 0%, 100%)" stroke-width="1.5"></path>
        <path d="M699.49 559.35L699.49 559.35" stroke="hsl(0, 0%, 100%)" stroke-width="1.5"></path>
        <path d="M699.49 559.35L832.12 554.63" stroke="hsl(0, 0%, 100%)" stroke-width="1.5"></path>
        <path d="M699.49 559.35L801.32 395.12" stroke="hsl(0, 0%, 100%)" stroke-width="1.5"></path>
        <path d="M699.49 559.35L855.53 696.24" stroke="hsl(0, 0%, 100%)" stroke-width="1.5"></path>
        <path d="M699.49 559.35L547.45 712.46" stroke="hsl(0, 0%, 100%)" stroke-width="1.5"></path>
        <path d="M801.32 395.12L801.32 395.12" stroke="hsl(0, 0%, 100%)" stroke-width="1.5"></path>
        <path d="M801.32 395.12L832.12 554.63" stroke="hsl(0, 0%, 100%)" stroke-width="1.5"></path>
        <path d="M801.32 395.12L981.08 349.92" stroke="hsl(0, 0%, 100%)" stroke-width="1.5"></path>
        <path d="M832.12 554.63L832.12 554.63" stroke="hsl(0, 0%, 100%)" stroke-width="1.5"></path>
        <path d="M832.12 554.63L855.53 696.24" stroke="hsl(0, 0%, 100%)" stroke-width="1.5"></path>
        <path d="M855.53 696.24L855.53 696.24" stroke="hsl(0, 0%, 100%)" stroke-width="1.5"></path>
        <path d="M855.53 696.24L948.35 700.35" stroke="hsl(0, 0%, 100%)" stroke-width="1.5"></path>
        <path d="M977.23 239.25L977.23 239.25" stroke="hsl(0, 0%, 100%)" stroke-width="1.5"></path>
        <path d="M977.23 239.25L1094.93 358.45" stroke="hsl(0, 0%, 100%)" stroke-width="1.5"></path>
        <path d="M1003.9 490.46L1003.9 490.46" stroke="hsl(0, 0%, 100%)" stroke-width="1.5"></path>
        <path d="M1003.9 490.46L1092.89 511.51" stroke="hsl(0, 0%, 100%)" stroke-width="1.5"></path>
        <path d="M1003.9 490.46L1094.93 358.45" stroke="hsl(0, 0%, 100%)" stroke-width="1.5"></path>
        <path d="M948.35 700.35L948.35 700.35" stroke="hsl(0, 0%, 100%)" stroke-width="1.5"></path>
        <path d="M948.35 700.35L832.12 554.63" stroke="hsl(0, 0%, 100%)" stroke-width="1.5"></path>
        <path d="M948.35 700.35L1003.9 490.46" stroke="hsl(0, 0%, 100%)" stroke-width="1.5"></path>
        <path d="M948.35 700.35L1092.89 511.51" stroke="hsl(0, 0%, 100%)" stroke-width="1.5"></path>
        <path d="M1092.89 511.51L1092.89 511.51" stroke="hsl(0, 0%, 100%)" stroke-width="1.5"></path>
        <path d="M1092.89 511.51L1262.59 492.01" stroke="hsl(0, 0%, 100%)" stroke-width="1.5"></path>
        <path d="M1296.61 -101.71L1296.61 -101.71" stroke="hsl(0, 0%, 100%)" stroke-width="1.5"></path>
        <path d="M1296.61 -101.71L1409.91 -107.47" stroke="hsl(0, 0%, 100%)" stroke-width="1.5"></path>
        <path d="M1296.61 -101.71L1255.23 59.28" stroke="hsl(0, 0%, 100%)" stroke-width="1.5"></path>
        <path d="M1296.61 -101.71L1553.37 -43.71" stroke="hsl(0, 0%, 100%)" stroke-width="1.5"></path>
        <path d="M1255.23 59.28L1255.23 59.28" stroke="hsl(0, 0%, 100%)" stroke-width="1.5"></path>
        <path d="M1255.23 59.28L1266.11 238.8" stroke="hsl(0, 0%, 100%)" stroke-width="1.5"></path>
        <path d="M1255.23 59.28L1409.91 -107.47" stroke="hsl(0, 0%, 100%)" stroke-width="1.5"></path>
        <path d="M1255.23 59.28L1426.44 211.89" stroke="hsl(0, 0%, 100%)" stroke-width="1.5"></path>
        <path d="M1266.11 238.8L1266.11 238.8" stroke="hsl(0, 0%, 100%)" stroke-width="1.5"></path>
        <path d="M1256.11 380.87L1256.11 380.87" stroke="hsl(0, 0%, 100%)" stroke-width="1.5"></path>
        <path d="M1256.11 380.87L1262.59 492.01" stroke="hsl(0, 0%, 100%)" stroke-width="1.5"></path>
        <path d="M1256.11 380.87L1392.55 359.41" stroke="hsl(0, 0%, 100%)" stroke-width="1.5"></path>
        <path d="M1262.59 492.01L1262.59 492.01" stroke="hsl(0, 0%, 100%)" stroke-width="1.5"></path>
        <path d="M1250.66 712.17L1250.66 712.17" stroke="hsl(0, 0%, 100%)" stroke-width="1.5"></path>
        <path d="M1250.66 712.17L1396.55 671.89" stroke="hsl(0, 0%, 100%)" stroke-width="1.5"></path>
        <path d="M1250.66 712.17L1262.59 492.01" stroke="hsl(0, 0%, 100%)" stroke-width="1.5"></path>
        <path d="M1250.66 712.17L1092.89 511.51" stroke="hsl(0, 0%, 100%)" stroke-width="1.5"></path>
        <path d="M1250.66 712.17L1448.23 549.1" stroke="hsl(0, 0%, 100%)" stroke-width="1.5"></path>
        <path d="M1250.66 712.17L948.35 700.35" stroke="hsl(0, 0%, 100%)" stroke-width="1.5"></path>
        <path d="M1250.66 712.17L1256.11 380.87" stroke="hsl(0, 0%, 100%)" stroke-width="1.5"></path>
        <path d="M1409.91 -107.47L1409.91 -107.47" stroke="hsl(0, 0%, 100%)" stroke-width="1.5"></path>
        <path d="M1409.91 -107.47L1553.37 -43.71" stroke="hsl(0, 0%, 100%)" stroke-width="1.5"></path>
        <path d="M1409.91 -107.47L1540.15 51.5" stroke="hsl(0, 0%, 100%)" stroke-width="1.5"></path>
        <path d="M1409.91 -107.47L1426.44 211.89" stroke="hsl(0, 0%, 100%)" stroke-width="1.5"></path>
        <path d="M1426.44 211.89L1426.44 211.89" stroke="hsl(0, 0%, 100%)" stroke-width="1.5"></path>
        <path d="M1426.44 211.89L1541.13 249.72" stroke="hsl(0, 0%, 100%)" stroke-width="1.5"></path>
        <path d="M1426.44 211.89L1392.55 359.41" stroke="hsl(0, 0%, 100%)" stroke-width="1.5"></path>
        <path d="M1392.55 359.41L1392.55 359.41" stroke="hsl(0, 0%, 100%)" stroke-width="1.5"></path>
        <path d="M1392.55 359.41L1266.11 238.8" stroke="hsl(0, 0%, 100%)" stroke-width="1.5"></path>
        <path d="M1392.55 359.41L1571.07 399.59" stroke="hsl(0, 0%, 100%)" stroke-width="1.5"></path>
        <path d="M1392.55 359.41L1541.13 249.72" stroke="hsl(0, 0%, 100%)" stroke-width="1.5"></path>
        <path d="M1448.23 549.1L1448.23 549.1" stroke="hsl(0, 0%, 100%)" stroke-width="1.5"></path>
        <path d="M1448.23 549.1L1552.73 528.59" stroke="hsl(0, 0%, 100%)" stroke-width="1.5"></path>
        <path d="M1448.23 549.1L1396.55 671.89" stroke="hsl(0, 0%, 100%)" stroke-width="1.5"></path>
        <path d="M1448.23 549.1L1607.91 651.47" stroke="hsl(0, 0%, 100%)" stroke-width="1.5"></path>
        <path d="M1448.23 549.1L1571.07 399.59" stroke="hsl(0, 0%, 100%)" stroke-width="1.5"></path>
        <path d="M1448.23 549.1L1262.59 492.01" stroke="hsl(0, 0%, 100%)" stroke-width="1.5"></path>
        <path d="M1448.23 549.1L1392.55 359.41" stroke="hsl(0, 0%, 100%)" stroke-width="1.5"></path>
        <path d="M1396.55 671.89L1396.55 671.89" stroke="hsl(0, 0%, 100%)" stroke-width="1.5"></path>
        <path d="M1553.37 -43.71L1553.37 -43.71" stroke="hsl(0, 0%, 100%)" stroke-width="1.5"></path>
        <path d="M1553.37 -43.71L1540.15 51.5" stroke="hsl(0, 0%, 100%)" stroke-width="1.5"></path>
        <path d="M1540.15 51.5L1540.15 51.5" stroke="hsl(0, 0%, 100%)" stroke-width="1.5"></path>
        <path d="M1540.15 51.5L1426.44 211.89" stroke="hsl(0, 0%, 100%)" stroke-width="1.5"></path>
        <path d="M1540.15 51.5L1541.13 249.72" stroke="hsl(0, 0%, 100%)" stroke-width="1.5"></path>
        <path d="M1541.13 249.72L1541.13 249.72" stroke="hsl(0, 0%, 100%)" stroke-width="1.5"></path>
        <path d="M1541.13 249.72L1571.07 399.59" stroke="hsl(0, 0%, 100%)" stroke-width="1.5"></path>
        <path d="M1571.07 399.59L1571.07 399.59" stroke="hsl(0, 0%, 100%)" stroke-width="1.5"></path>
        <path d="M1571.07 399.59L1552.73 528.59" stroke="hsl(0, 0%, 100%)" stroke-width="1.5"></path>
        <path d="M1571.07 399.59L1426.44 211.89" stroke="hsl(0, 0%, 100%)" stroke-width="1.5"></path>
        <path d="M1571.07 399.59L1607.91 651.47" stroke="hsl(0, 0%, 100%)" stroke-width="1.5"></path>
        <path d="M1552.73 528.59L1552.73 528.59" stroke="hsl(0, 0%, 100%)" stroke-width="1.5"></path>
        <path d="M1607.91 651.47L1607.91 651.47" stroke="hsl(0, 0%, 100%)" stroke-width="1.5"></path>
        <path d="M1607.91 651.47L1552.73 528.59" stroke="hsl(0, 0%, 100%)" stroke-width="1.5"></path>
        <path d="M1607.91 651.47L1396.55 671.89" stroke="hsl(0, 0%, 100%)" stroke-width="1.5"></path>
        <path d="M1607.91 651.47L1250.66 712.17" stroke="hsl(0, 0%, 100%)" stroke-width="1.5"></path>
        <circle r="25" cx="381.72" cy="534.42" fill="url(&quot;#SvgjsRadialGradient1011&quot;)"></circle>
        <circle r="25" cx="339.09" cy="678.14" fill="url(&quot;#SvgjsRadialGradient1011&quot;)"></circle>
        <circle r="25" cx="981.08" cy="349.92" fill="url(&quot;#SvgjsRadialGradient1011&quot;)"></circle>
        <circle r="25" cx="1126.5" cy="253.16" fill="url(&quot;#SvgjsRadialGradient1011&quot;)"></circle>
        <circle r="25" cx="1094.93" cy="358.45" fill="url(&quot;#SvgjsRadialGradient1011&quot;)"></circle>
        <circle r="5" cx="-90.13" cy="519.57" fill="#ffffff"></circle>
        <circle r="5" cx="-45.06" cy="706.23" fill="#ffffff"></circle>
        <circle r="5" cx="88.95" cy="526.77" fill="#ffffff"></circle>
        <circle r="5" cx="59.46" cy="679.16" fill="#ffffff"></circle>
        <circle r="5" cx="209.45" cy="511.09" fill="#ffffff"></circle>
        <circle r="5" cx="194.16" cy="648.76" fill="#ffffff"></circle>
        <circle r="5" cx="533.45" cy="527.24" fill="#ffffff"></circle>
        <circle r="5" cx="547.45" cy="712.46" fill="#ffffff"></circle>
        <circle r="5" cx="697.22" cy="399.52" fill="#ffffff"></circle>
        <circle r="5" cx="699.49" cy="559.35" fill="#ffffff"></circle>
        <circle r="5" cx="801.32" cy="395.12" fill="#ffffff"></circle>
        <circle r="5" cx="832.12" cy="554.63" fill="#ffffff"></circle>
        <circle r="5" cx="855.53" cy="696.24" fill="#ffffff"></circle>
        <circle r="5" cx="977.23" cy="239.25" fill="#ffffff"></circle>
        <circle r="5" cx="1003.9" cy="490.46" fill="#ffffff"></circle>
        <circle r="5" cx="948.35" cy="700.35" fill="#ffffff"></circle>
        <circle r="5" cx="1092.89" cy="511.51" fill="#ffffff"></circle>
        <circle r="5" cx="1296.61" cy="-101.71" fill="#ffffff"></circle>
        <circle r="5" cx="1255.23" cy="59.28" fill="#ffffff"></circle>
        <circle r="5" cx="1266.11" cy="238.8" fill="#ffffff"></circle>
        <circle r="5" cx="1256.11" cy="380.87" fill="#ffffff"></circle>
        <circle r="5" cx="1262.59" cy="492.01" fill="#ffffff"></circle>
        <circle r="5" cx="1250.66" cy="712.17" fill="#ffffff"></circle>
        <circle r="5" cx="1409.91" cy="-107.47" fill="#ffffff"></circle>
        <circle r="5" cx="1426.44" cy="211.89" fill="#ffffff"></circle>
        <circle r="5" cx="1392.55" cy="359.41" fill="#ffffff"></circle>
        <circle r="5" cx="1448.23" cy="549.1" fill="#ffffff"></circle>
        <circle r="5" cx="1396.55" cy="671.89" fill="#ffffff"></circle>
        <circle r="5" cx="1553.37" cy="-43.71" fill="#ffffff"></circle>
        <circle r="5" cx="1540.15" cy="51.5" fill="#ffffff"></circle>
        <circle r="5" cx="1541.13" cy="249.72" fill="#ffffff"></circle>
        <circle r="5" cx="1571.07" cy="399.59" fill="#ffffff"></circle>
        <circle r="5" cx="1552.73" cy="528.59" fill="#ffffff"></circle>
        <circle r="5" cx="1607.91" cy="651.47" fill="#ffffff"></circle>
    </g>
    <defs>
        <mask id="SvgjsMask1010">
            <rect width="1440" height="560" fill="#ffffff"></rect>
        </mask>
        <radialGradient id="SvgjsRadialGradient1011">
            <stop stop-color="#ffffff" offset="0.1"></stop>
            <stop stop-color="rgba(255, 255, 255, 1)" offset="0.2"></stop>
            <stop stop-color="rgba(255, 255, 255, 0)" offset="1"></stop>
        </radialGradient>
    </defs>
</svg>